<svg width="1115" height="612" viewBox="0 0 1115 612" fill="currentColor" xmlns="http://www.w3.org/2000/svg">
<path d="M312.768 0.00976562L322.968 0.410156L323.101 0.415039L328.466 0.730469L328.598 0.741211L333.698 1.1416L333.83 1.15137L333.961 1.16406L339.062 1.66406L339.208 1.67871L344.322 2.29395L344.323 2.29297L349.704 2.92578L354.941 3.76465L354.942 3.76367L360.042 4.56348L360.323 4.6084L370.602 6.66406L370.729 6.68945L370.856 6.7168L375.856 7.81738L376.014 7.85156L381.069 9.08984L381.163 9.11328L386.257 10.4375L386.289 10.4453L391.222 11.7539L391.47 11.8203L401.516 14.8955L401.676 14.9443L401.835 14.9971L406.755 16.6377L406.875 16.6797L411.675 18.3799L411.793 18.4219L416.871 20.3262L417.031 20.3906L426.658 24.2832L426.883 24.3828L436.282 28.583L436.443 28.6543L441.202 30.9307L441.364 31.0078L441.523 31.0898L445.916 33.335L450.517 35.6357L450.781 35.7676L455.539 38.4111L455.596 38.4424L455.653 38.4746L460.053 40.9746L460.153 41.0322L460.253 41.0908L464.653 43.6914L464.712 43.7256L464.771 43.7617L469.071 46.3613L469.204 46.4424L469.336 46.5254L473.736 49.3262L473.858 49.4033L478.179 52.2842L478.271 52.3457L478.361 52.4082L486.762 58.208L487.003 58.375L491.337 61.6514L491.401 61.7002L491.466 61.75L495.466 64.8496L495.548 64.9141L495.63 64.9795L503.63 71.3799L503.845 71.5508L504.052 71.7314L507.852 75.0312L507.861 75.04L507.871 75.0479L511.979 78.6299L512.181 78.8193L523.555 89.5791L534.504 101.154L538.086 105.263L538.095 105.272L538.103 105.282L541.583 109.289L541.754 109.504L548.154 117.504L548.22 117.586L551.384 121.669L551.434 121.732L551.482 121.798L554.76 126.131L554.926 126.372L560.726 134.772L560.789 134.863L560.851 134.956L563.65 139.155L563.73 139.276L563.809 139.398L566.608 143.798L566.691 143.93L566.772 144.062L569.372 148.362L569.408 148.422L569.443 148.48L572.043 152.881L572.102 152.98L572.159 153.081L574.691 157.538L574.723 157.595L577.366 162.354L577.499 162.617L579.789 167.198L582.044 171.61L582.126 171.77L582.203 171.932L584.403 176.532L584.479 176.69L584.552 176.852L588.751 186.252L588.852 186.476L592.743 196.103L592.808 196.263L592.868 196.425L594.669 201.225L594.712 201.342L594.754 201.459L596.454 206.259L596.496 206.379L598.137 211.299L598.189 211.458L598.238 211.619L601.313 221.664L601.38 221.912L602.688 226.845L602.697 226.877L604.021 231.971L604.044 232.064L605.244 236.965L605.282 237.121L605.316 237.277L606.417 242.277L606.444 242.404L606.471 242.532L608.526 252.812L609.363 258.151L610.164 263.151L610.208 263.43L610.837 268.779L611.455 273.926L611.47 274.072L611.97 279.173L611.982 279.305L611.993 279.437L612.393 284.536L612.403 284.669L612.719 290.034L612.724 290.167L612.944 295.8H613.924V316.2H612.944L612.724 321.833L612.719 321.966L612.403 327.331L612.393 327.463L611.993 332.563L611.982 332.695L611.97 332.826L611.47 337.927L611.455 338.073L610.838 343.22L610.837 343.219L610.208 348.569L610.164 348.849L609.369 353.807L609.37 353.808L608.526 359.188L606.471 369.467L606.444 369.595L606.417 369.722L605.316 374.722L605.282 374.879L604.044 379.935L604.021 380.028L602.697 385.122L602.688 385.154L601.38 390.087L601.313 390.335L598.238 400.381L598.189 400.541L598.137 400.7L596.496 405.62L596.454 405.74L594.754 410.54L594.712 410.658L594.669 410.774L592.808 415.736L592.743 415.896L588.852 425.523L584.552 435.147L584.479 435.309L582.203 440.067L582.126 440.229L582.044 440.389L579.799 444.781L577.499 449.382L577.366 449.646L574.723 454.404L574.691 454.461L574.659 454.519L572.159 458.918L572.102 459.019L572.043 459.118L569.443 463.519L569.408 463.577L569.372 463.637L566.772 467.937L566.691 468.069L566.608 468.201L563.809 472.602L563.73 472.724L560.851 477.044L560.789 477.136L560.726 477.227L554.926 485.627L554.76 485.868L551.434 490.267L551.384 490.33L548.22 494.413L548.154 494.495L541.754 502.495L541.583 502.71L538.103 506.717L538.095 506.727L538.086 506.736L534.504 510.845L534.314 511.046L523.555 522.42L512.181 533.18L511.979 533.369L507.871 536.951L507.861 536.96L507.852 536.968L503.845 540.448L503.63 540.619L495.63 547.02L495.548 547.085L491.465 550.249L491.401 550.299L487.003 553.625L486.762 553.791L478.361 559.591L478.271 559.654L478.179 559.716L473.858 562.596L473.736 562.674L469.336 565.474L469.204 565.557L469.071 565.638L464.771 568.237L464.712 568.273L464.653 568.309L460.253 570.908L460.153 570.967L460.053 571.024L455.653 573.524L455.596 573.557L455.539 573.588L450.781 576.231L450.517 576.364L445.916 578.664L441.523 580.909L441.364 580.991L441.202 581.068L436.443 583.345L436.282 583.417L426.658 587.717L417.031 591.608L416.871 591.673L411.909 593.534L411.793 593.577L411.675 593.619L406.875 595.319L406.755 595.361L401.835 597.002L401.676 597.055L401.516 597.104L391.47 600.179L391.222 600.245L386.289 601.554L386.257 601.562L381.163 602.887L381.069 602.909L376.014 604.147L375.856 604.182L370.856 605.282L370.729 605.31L370.602 605.336L360.323 607.392L354.942 608.235L354.941 608.234L349.983 609.029L349.704 609.073L344.354 609.702L344.354 609.703L339.208 610.32L339.062 610.335L333.961 610.835L333.83 610.848L333.698 610.858L328.598 611.258L328.466 611.269L323.101 611.584L322.968 611.589L312.768 611.989L312.501 612H301.768L301.501 611.989L291.302 611.589L291.169 611.584L285.804 611.269L285.671 611.258L280.571 610.858L280.439 610.848L280.308 610.835L275.207 610.335L275.061 610.32L269.914 609.703L264.564 609.073L264.286 609.029L259.327 608.234L253.946 607.392L243.667 605.336L243.539 605.31L243.412 605.282L238.412 604.182L238.256 604.147L238.1 604.109L233.199 602.909L233.105 602.887L228.012 601.562L227.979 601.554L223.047 600.245L222.799 600.179L212.754 597.104L212.593 597.055L212.434 597.002L207.514 595.361L207.394 595.319L202.594 593.619L202.477 593.577L202.359 593.534L197.56 591.733L197.397 591.673L197.237 591.608L187.61 587.717L187.387 587.616L177.986 583.417L177.825 583.345L177.667 583.269L173.066 581.068L172.904 580.991L172.745 580.909L168.353 578.664L163.752 576.364L163.488 576.231L158.729 573.588L158.673 573.557L154.216 571.024L154.115 570.967L154.016 570.908L149.615 568.309L149.557 568.273L149.497 568.237L145.197 565.638L145.064 565.557L144.933 565.474L140.533 562.674L140.411 562.596L140.29 562.516L136.091 559.716L135.998 559.654L135.907 559.591L127.507 553.791L127.266 553.625L122.933 550.348L122.867 550.299L122.804 550.249L118.721 547.085L118.639 547.02L110.639 540.619L110.424 540.448L106.417 536.968L106.407 536.96L106.397 536.951L102.289 533.369L90.7139 522.42L79.9541 511.046L79.7646 510.845L76.1826 506.736L76.1748 506.727L76.166 506.717L72.8662 502.917L72.6855 502.71L72.5146 502.495L66.1143 494.495L66.0488 494.413L65.9844 494.331L62.8848 490.331L62.835 490.267L62.7861 490.202L59.5098 485.868L59.3428 485.627L53.543 477.227L53.4805 477.136L53.4189 477.044L50.5381 472.724L50.4609 472.602L47.6602 468.201L47.5771 468.069L47.4961 467.937L44.8965 463.637L44.8604 463.577L44.8262 463.519L42.2256 459.118L42.167 459.019L42.1094 458.918L39.6094 454.519L39.5771 454.461L39.5459 454.404L36.9023 449.646L36.7705 449.382L34.4697 444.782L32.2246 440.389L32.1426 440.229L32.0654 440.067L29.7891 435.309L29.7178 435.147L25.5176 425.748L25.418 425.523L21.5254 415.896L21.4609 415.736L19.5566 410.658L19.5146 410.54L17.8145 405.74L17.7725 405.62L16.1318 400.7L16.0791 400.541L16.0303 400.381L12.9551 390.335L12.8887 390.087L11.5801 385.154L11.5723 385.122L10.248 380.028L10.2246 379.935L8.98633 374.879L8.95215 374.722L7.85156 369.722L7.82422 369.595L7.79883 369.467L5.74316 359.188L5.69824 358.907L4.89844 353.808L4.89941 353.807L4.06055 348.569L3.42773 343.188L3.42871 343.188L2.81348 338.073L2.79883 337.927L2.29883 332.826L2.28613 332.695L2.27637 332.563L1.87598 327.463L1.86523 327.331L1.5498 321.966L1.54492 321.833L1.32422 316.2H0V295.8H1.32422L1.54492 290.167L1.5498 290.034L1.86523 284.669L1.87598 284.536L2.27637 279.437L2.28613 279.305L2.29883 279.173L2.79883 274.072L2.81348 273.926L3.43164 268.779L4.06055 263.43L4.10547 263.151L4.90527 258.151L5.69824 253.092L5.74316 252.812L7.79883 242.532L7.82422 242.404L7.85156 242.277L8.95215 237.277L8.98633 237.121L9.02441 236.965L10.2246 232.064L10.248 231.971L11.5723 226.877L11.5801 226.845L11.5889 226.812L12.8887 221.912L12.9551 221.664L16.0303 211.619L16.0791 211.458L16.1318 211.299L17.7725 206.379L17.8145 206.259L19.5146 201.459L19.5566 201.342L21.4004 196.425L21.4609 196.263L21.5254 196.103L25.418 186.476L25.5176 186.252L29.7178 176.852L29.7891 176.69L29.8652 176.532L32.0654 171.932L32.1426 171.77L32.2246 171.61L34.4785 167.198L36.9023 162.354L39.5459 157.595L39.5771 157.538L42.1094 153.081L42.167 152.98L42.2256 152.881L44.8262 148.48L44.8604 148.422L44.8965 148.362L47.4961 144.062L47.5771 143.93L47.6602 143.798L50.4609 139.398L50.5381 139.276L50.6182 139.155L53.4189 134.956L53.4805 134.863L53.543 134.772L59.3428 126.372L59.5098 126.131L62.7861 121.797L62.835 121.732L62.8848 121.669L66.0488 117.586L66.1143 117.504L72.5146 109.504L72.6855 109.289L72.8662 109.082L76.166 105.282L76.1748 105.272L76.1826 105.263L79.7646 101.154L90.7139 89.5791L102.289 78.6299L106.397 75.0479L106.407 75.04L106.417 75.0312L110.217 71.7314L110.424 71.5508L110.639 71.3799L118.639 64.9795L118.721 64.9141L122.804 61.75L122.867 61.7002L122.932 61.6514L127.266 58.375L127.507 58.208L135.907 52.4082L135.998 52.3457L136.091 52.2842L140.29 49.4834L140.411 49.4033L140.533 49.3262L144.933 46.5254L145.064 46.4424L145.197 46.3613L149.497 43.7617L149.557 43.7256L149.615 43.6914L154.016 41.0908L154.115 41.0322L154.216 40.9746L158.673 38.4424L158.729 38.4111L163.488 35.7676L168.353 33.335L172.745 31.0898L172.904 31.0078L173.066 30.9307L177.667 28.7305L177.825 28.6543L177.986 28.583L187.387 24.3828L187.61 24.2832L197.237 20.3906L197.397 20.3262L197.56 20.2656L202.477 18.4219L202.594 18.3799L207.394 16.6797L207.514 16.6377L212.434 14.9971L212.593 14.9443L212.754 14.8955L222.799 11.8203L223.047 11.7539L227.947 10.4541L227.979 10.4453L228.012 10.4375L233.105 9.11328L233.199 9.08984L238.1 7.88965L238.256 7.85156L238.412 7.81738L243.412 6.7168L243.539 6.68945L243.667 6.66406L253.946 4.6084L254.227 4.56348L259.327 3.76367L264.286 2.9707L264.564 2.92578L269.945 2.29297L275.061 1.67871L275.207 1.66406L280.308 1.16406L280.439 1.15137L280.571 1.1416L285.671 0.741211L285.804 0.730469L291.169 0.415039L291.302 0.410156L301.501 0.00976562L301.768 0H312.501L312.768 0.00976562ZM136.442 452.998L137.62 457.125L138.878 461.284L140.14 465.36L142.832 473.244L145.734 480.983L148.81 488.479L150.402 492.039L152.128 495.683L153.888 499.301L155.609 502.744L157.433 506.197L159.248 509.54L161.174 512.911L163.035 516.074L165.017 519.188L167.022 522.243L169.104 525.271L171.208 528.233L173.384 531.166L175.548 533.989L177.704 536.708L182.246 542.007L184.555 544.501L186.86 546.898L189.304 549.248L189.376 549.317L189.447 549.388L191.739 551.68L194.192 553.86L196.641 556.025L199.115 558.042L201.616 559.986L204.271 561.978L206.84 563.812L209.393 565.545L214.792 568.896L215.74 569.419L216.364 569.641L220.905 571.153L230.252 574.015L234.855 575.237L239.793 576.521L244.39 577.646L249.12 578.688L258.705 580.604L263.542 581.364L263.583 581.37L268.293 582.124L273.123 582.692L273.154 582.696L277.995 583.277L282.816 583.75L283.459 583.8L287.672 583.29L290.815 582.828L294.01 582.265L297.049 581.712L300.014 581.015L303.15 580.16L303.188 580.149L303.225 580.14L306.472 579.28L309.598 578.36L312.606 577.357L315.834 576.218L318.927 575.035L322.051 573.711L322.101 573.689L325.266 572.385L331.52 569.353L334.711 567.757L337.738 566.106L344.095 562.446L347.128 560.551L350.261 558.557L353.342 556.502L359.426 552.128L365.591 547.312L368.572 544.907L371.584 542.364L374.538 539.793L377.499 537.12L380.508 534.306L383.386 531.523L386.264 528.646L389.127 525.688L394.98 519.443L397.663 516.391L400.36 513.116L400.417 513.048L403.27 509.702L405.756 506.593L403.414 506.843L403.403 506.844L403.392 506.845L398.592 507.345L398.487 507.355L393.477 507.773L393.371 507.779L388.571 508.08L388.559 508.081L383.658 508.381L383.657 508.38L378.762 508.687L378.651 508.691L373.751 508.892L373.647 508.896L373.543 508.897L368.644 508.997L368.64 508.998L363.537 509.1H358.434L348.229 508.896L348.128 508.892L338.128 508.491L338.025 508.487L337.924 508.481L327.924 507.881L327.823 507.875L327.722 507.867L322.722 507.467L322.631 507.46L322.54 507.451L317.439 506.951L312.42 506.449L312.32 506.438L312.22 506.427L307.243 505.829L302.144 505.229L302.032 505.217L296.921 504.501L296.822 504.487L296.724 504.472L291.724 503.672L286.654 502.876L286.639 502.874L286.624 502.871L281.624 502.071L281.525 502.056L276.428 501.139L276.331 501.121L276.234 501.102L271.234 500.102L271.139 500.082L271.044 500.062L266.189 498.992L261.234 498.002L261.044 497.963L260.854 497.918L255.854 496.718L255.832 496.713L255.809 496.707L250.909 495.507L245.837 494.29L245.72 494.259L240.819 492.959L240.726 492.934L240.633 492.907L230.833 490.107L230.713 490.072L230.593 490.035L225.85 488.553L220.949 487.053L220.829 487.016L220.71 486.977L211.109 483.776L210.987 483.735L210.866 483.691L201.466 480.291L201.376 480.259L201.287 480.225L191.887 476.625L191.764 476.577L191.642 476.527L182.441 472.727L182.354 472.691L182.269 472.653L177.668 470.653L177.63 470.638L177.593 470.62L173.093 468.62L173.007 468.582L172.922 468.543L168.422 466.442L168.342 466.405L163.857 464.265L154.974 459.823L150.589 457.58L150.462 457.515L150.336 457.446L141.936 452.846L141.854 452.802L141.774 452.756L137.574 450.355L137.482 450.303L135.37 449.066L136.442 452.998ZM538.139 460.718L538.076 460.762L534.813 463.005L534.724 463.067L534.632 463.127L531.372 465.267L531.312 465.305L528.012 467.405L527.86 467.501L527.707 467.592L524.252 469.624L524.195 469.655L520.695 471.655L520.6 471.711L520.502 471.764L517.002 473.664L516.896 473.721L513.296 475.62L513.197 475.673L513.097 475.723L509.497 477.522L509.447 477.548L509.397 477.572L505.697 479.372L505.649 479.396L505.602 479.418L501.802 481.218L501.701 481.266L497.801 483.011L497.654 483.075L497.507 483.137L489.707 486.336L489.562 486.396L481.417 489.45L481.274 489.504L481.131 489.553L472.792 492.4L472.651 492.443L468.451 493.743L468.419 493.754L468.387 493.763L464.013 495.086L459.737 496.308L459.679 496.324L459.619 496.34L455.219 497.54L455.142 497.562L455.063 497.581L450.606 498.722L445.974 499.751L441.596 500.746L441.466 500.775L441.336 500.802L436.836 501.701L436.814 501.706L436.794 501.71L434.598 502.139L433.353 503.96L433.265 504.088L433.174 504.213L427.682 511.739L424.786 515.463L424.743 515.518L424.699 515.572L419.1 522.572L418.999 522.697L418.895 522.819L416.062 526.141L413.308 529.484L413.204 529.61L413.097 529.733L410.196 533.033L410.088 533.157L409.976 533.276L403.976 539.677L403.864 539.794L400.806 542.954L397.686 546.074L394.624 549.034L394.503 549.149L391.402 552.049L391.338 552.11L391.271 552.17L388.172 554.97L388.103 555.031L388.033 555.092L384.873 557.845L384.812 557.896L381.525 560.669L381.438 560.74L378.338 563.24L378.276 563.29L378.214 563.338L371.813 568.338L371.653 568.464L364.941 573.288L361.492 575.587L361.402 575.647L361.311 575.706L358.011 577.806L357.976 577.828L357.94 577.85L354.74 579.85L354.584 579.948L354.424 580.04L352.648 581.062L355.563 580.604L365.148 578.688L369.87 577.648L374.475 576.521L379.412 575.237L384.016 574.015L393.362 571.153L397.888 569.646L402.499 568.013L406.979 566.332L416.02 562.678L425.005 558.664L429.298 556.61L433.645 554.39L433.698 554.362L433.752 554.336L438.102 552.16L442.216 549.875L446.523 547.427L450.815 544.891L454.871 542.438L459.024 539.794L462.976 537.16L471.074 531.567L474.904 528.671L478.718 525.717L486.422 519.553L490.017 516.432L493.683 513.235L504.313 503.179L514.37 492.548L517.583 488.862L520.688 485.287L526.852 477.583L529.806 473.77L532.702 469.939L538.295 461.841L539.855 459.498L538.139 460.718ZM32.5254 354.407L34.4463 364.015L35.4766 368.698L36.6133 373.342L37.8799 378.212L39.1123 382.858L41.9912 392.264L43.4873 396.753L45.1201 401.364L46.7998 405.844L50.4453 414.863L54.4834 423.899L56.5225 428.163L58.7441 432.51L58.7988 432.617L60.9648 436.95L63.3027 441.158L65.7061 445.389L68.2227 449.646L70.6885 453.725L73.3398 457.891L75.9727 461.841L81.5557 469.927L84.4609 473.769L87.417 477.582L93.5801 485.287L96.7031 488.882L99.8975 492.547L109.955 503.18L120.585 513.235L124.252 516.432L127.846 519.553L135.55 525.717L139.363 528.671L143.207 531.577L151.293 537.16L153.635 538.722L152.416 537.004L152.372 536.941L150.129 533.679L150.067 533.589L150.007 533.497L147.867 530.237L147.829 530.177L145.729 526.877L145.633 526.726L145.543 526.572L143.543 523.172L143.51 523.117L143.479 523.061L141.479 519.561L141.423 519.465L141.37 519.367L139.47 515.867L139.441 515.814L139.414 515.762L137.514 512.161L137.461 512.062L137.411 511.962L135.611 508.362L135.586 508.312L135.562 508.263L133.762 504.562L133.739 504.515L133.716 504.467L131.916 500.667L131.869 500.566L131.823 500.466L130.059 496.52L126.798 488.572L126.738 488.428L123.684 480.282L123.631 480.14L123.582 479.996L120.781 471.797L120.734 471.657L120.69 471.517L119.391 467.316L118.071 462.952L118.048 462.878L116.827 458.603L116.81 458.544L116.794 458.484L115.594 454.084L115.572 454.007L115.553 453.929L114.412 449.472L113.388 444.861L112.388 440.461L112.358 440.331L112.332 440.201L111.433 435.701L111.429 435.68L111.424 435.659L110.994 433.462L109.176 432.218L109.048 432.13L108.923 432.039L101.522 426.64L101.396 426.547L101.272 426.451L97.6729 423.651L97.6182 423.608L97.5635 423.564L90.5635 417.965L90.4385 417.864L90.3164 417.76L86.9941 414.927L83.6514 412.173L83.5244 412.069L80.1016 409.062L79.9785 408.953L79.8594 408.841L73.459 402.841L73.3418 402.729L70.1816 399.671L67.0615 396.551L67.001 396.489L64.043 393.429L61.0859 390.268L61.0254 390.203L60.9658 390.137L58.166 387.036L58.1045 386.968L58.0439 386.898L55.291 383.738L55.2393 383.678L52.5391 380.478L52.4668 380.391L52.3955 380.303L49.8955 377.203L49.8457 377.142L44.6719 370.519L39.9521 363.953L39.8477 363.807L37.5479 360.357L37.4883 360.268L37.4297 360.176L35.3301 356.876L35.2852 356.806L33.1875 353.449L33.0957 353.289L32.0703 351.509L32.5254 354.407ZM126.483 318.315L125.996 323.28L125.611 328.088L125.022 337.884L124.631 347.669L124.435 357.506V362.181L124.629 371.863L124.821 376.589L125.114 381.264L125.115 381.277L125.414 386.164L125.708 390.868L126.094 395.487L126.577 400.121L127.062 404.691L127.64 409.209L129.008 418.394L129.53 421.404L131.981 423.038L139.745 427.891L143.775 430.348L147.696 432.644L151.787 434.981L160.026 439.493L164.097 441.576L172.813 445.935L177.129 447.994L181.444 450.008L185.868 451.974L190.317 453.908L199.302 457.619L208.499 461.142L217.679 464.462L227.016 467.574L231.821 469.046L231.878 469.063L236.579 470.532L246.126 473.26L250.829 474.509L255.716 475.682L255.738 475.687L255.762 475.692L260.614 476.881L265.439 478.038L270.235 478.998L270.331 479.017L270.427 479.038L275.338 480.118L280.12 481.074L284.944 481.943L289.852 482.728L294.916 483.522L294.932 483.525L294.947 483.527L299.822 484.308L304.648 484.983L309.627 485.569L309.639 485.571L309.65 485.572L314.576 486.162L319.431 486.648L324.415 487.137L329.224 487.521L339.017 488.11L348.852 488.504L358.594 488.699H363.377L372.999 488.504L377.68 488.313L382.399 488.02L382.412 488.019L387.312 487.719L391.962 487.428L396.576 487.044L401.256 486.557L405.871 486.065L410.343 485.494L419.49 484.132L422.54 483.602L424.173 481.154L429.034 473.374L431.482 469.359L433.779 465.437L436.116 461.348L440.625 453.116L442.754 448.954L447.069 440.321L449.129 436.007L451.146 431.685L453.09 427.31L455.044 422.815L458.769 413.798L462.287 404.608L465.597 395.456L468.713 386.107L470.181 381.314L470.198 381.258L471.667 376.556L474.395 367.008L475.645 362.301L476.816 357.42L476.821 357.397L476.827 357.374L478.016 352.52L479.175 347.689L480.133 342.9L480.151 342.805L480.173 342.709L481.253 337.797L482.21 333.012L483.078 328.19L483.862 323.289L484.657 318.22L484.66 318.204L484.662 318.188L484.98 316.2H126.695L126.483 318.315ZM505.636 316.215L505.622 316.313L505.606 316.412L504.807 321.412L504.011 326.481L504.009 326.496L504.006 326.512L503.19 331.609L502.256 336.805L502.236 336.9L501.236 341.9L501.217 341.996L501.196 342.092L500.125 346.955L499.137 351.9L499.098 352.092L499.053 352.281L497.853 357.281L497.848 357.304L497.842 357.327L496.642 362.227L495.425 367.299L495.394 367.416L494.094 372.316L494.068 372.409L494.042 372.503L491.242 382.303L491.207 382.423L491.17 382.543L489.67 387.343L488.188 392.187L488.15 392.307L488.111 392.426L484.911 402.026L484.87 402.148L484.826 402.27L481.426 411.67L481.394 411.76L481.359 411.849L477.76 421.248L477.712 421.372L477.662 421.494L473.861 430.694L473.826 430.781L473.788 430.867L471.788 435.468L471.772 435.505L471.755 435.543L469.755 440.043L469.717 440.129L469.678 440.214L467.577 444.714L467.54 444.794L465.399 449.278L460.958 458.162L458.649 462.674L458.581 462.8L453.98 471.199L453.937 471.28L453.891 471.361L451.49 475.562L451.438 475.653L450.202 477.763L454.207 476.671L458.259 475.513L462.425 474.253L466.466 473.003L474.379 470.301L482.119 467.398L489.613 464.323L493.174 462.73L496.817 461.005L500.4 459.263L503.879 457.523L507.332 455.7L510.675 453.885L514.07 451.945L517.223 450.09L520.274 448.147L523.348 446.131L526.406 444.027L529.339 441.947L532.301 439.749L535.124 437.585L537.843 435.429L543.156 430.875L545.636 428.579L548.021 426.285L550.383 423.83L550.452 423.758L552.807 421.402L555.012 418.923L557.15 416.504L559.177 414.018L561.121 411.517L563.112 408.861L564.953 406.285L566.68 403.74L570.031 398.341L570.552 397.396L570.78 396.753L572.288 392.228L575.149 382.881L576.372 378.277L577.655 373.34L578.783 368.735L579.822 364.014L581.739 354.429L582.499 349.592L582.505 349.551L583.259 344.84L583.827 340.011L583.831 339.979L584.412 335.138L584.885 330.312L584.935 329.671L584.426 325.466L583.964 322.323L583.399 319.124L582.868 316.2H505.638L505.636 316.215ZM38.0898 317.77L39.4248 320.916L39.4463 320.966L40.75 324.132L43.7812 330.385L45.3662 333.556L47.0283 336.604L50.6768 342.941L52.5752 345.978L54.5791 349.127L56.6211 352.19L61.0059 358.29L65.8232 364.456L68.2275 367.438L70.7998 370.484L73.3643 373.429L76.0146 376.364L78.8291 379.373L81.6113 382.251L84.4893 385.129L87.4473 387.992L93.6914 393.846L96.7441 396.528L100.02 399.226L100.154 399.339L103.447 402.147L106.541 404.622L106.292 402.279L106.29 402.269L106.289 402.257L105.789 397.457L105.778 397.353L105.36 392.342L105.354 392.236L105.055 387.437L105.054 387.424L104.755 382.536L104.447 377.627L104.442 377.517L104.243 372.616L104.238 372.513L104.236 372.408L104.137 367.509V367.504L104.034 362.402V357.299L104.238 347.095L104.242 346.993L104.643 336.993L104.646 336.891L104.652 336.789L105.253 326.789L105.259 326.688L105.267 326.587L105.667 321.587L105.674 321.496L105.683 321.405L106.183 316.305L106.193 316.2H37.4902L38.0898 317.77ZM1021.99 168.664C1075.27 168.664 1108.84 192.38 1108.84 229.032C1108.84 251.824 1094.06 269.688 1069.11 277.388C1097.14 284.472 1114.38 304.8 1114.38 330.364C1114.38 370.096 1078.35 395.66 1021.99 395.66C965.621 395.66 929.585 369.788 929.585 330.364C929.585 304.492 947.449 284.164 974.861 277.388C949.605 269.688 935.129 251.516 935.129 229.032C935.129 192.072 969.009 168.664 1021.99 168.664ZM898.6 204.084H771.704V262.912H866.26V292.172H771.704V360.24H909.071V390.732H736.284V173.592H898.6V204.084ZM1021.99 289.708C987.797 289.708 966.853 304.492 966.853 327.9C966.853 351.616 987.797 366.4 1021.99 366.4C1056.17 366.4 1077.12 351.616 1077.12 327.9C1077.12 304.184 1055.87 289.708 1021.99 289.708ZM160.137 135.307L156.01 136.485L151.852 137.743L147.774 139.005L139.891 141.697L132.15 144.6L124.655 147.675L121.095 149.268L117.452 150.993L113.868 152.736L110.391 154.475L106.938 156.298L103.575 158.124L100.257 160.02L97.0479 161.907L93.9473 163.882L90.9111 165.874L87.8945 167.948L84.9014 170.073L81.9688 172.249L79.1455 174.413L76.4268 176.569L71.1152 181.122L68.6338 183.42L66.248 185.714L63.8877 188.169L63.8184 188.241L63.748 188.312L61.4551 190.604L59.2744 193.057L59.2754 193.058L57.1084 195.506L55.1094 197.96L53.1475 200.482L51.1758 203.11L49.2979 205.739L47.5898 208.257L44.2373 213.658L43.71 214.612L43.4922 215.229L41.9912 219.734L39.1104 229.146L37.8799 233.787L36.6133 238.656L35.4785 243.291L34.4463 247.984L32.5254 257.592L31.7705 262.407L31.7666 262.428L31.7637 262.448L31.0059 267.18L30.4414 271.988L30.4375 272.02L29.8516 276.903L29.3828 281.681L29.333 282.315L29.8496 286.575L30.3008 289.647L30.8711 292.875L31.4023 295.8H108.631L108.633 295.786L108.646 295.688L108.662 295.589L109.463 290.589L110.258 285.52L110.26 285.504L110.263 285.489L111.062 280.489L111.078 280.391L111.096 280.294L111.996 275.294L112.013 275.196L112.032 275.1L113.032 270.1L113.052 270.004L113.072 269.909L114.152 265.006L115.171 259.909L115.216 259.72L116.416 254.72L116.422 254.697L116.427 254.674L117.627 249.774L118.845 244.702L118.875 244.585L120.176 239.685L120.2 239.591L120.227 239.498L123.026 229.698L123.062 229.578L123.099 229.458L124.599 224.658L126.081 219.814L126.118 219.694L126.158 219.575L129.357 209.975L129.398 209.853L129.442 209.731L132.843 200.331L132.875 200.241L132.909 200.152L136.509 190.752L136.557 190.629L136.606 190.507L140.407 181.307L140.442 181.22L140.48 181.134L142.497 176.495L142.514 176.458L144.514 171.958L144.552 171.872L144.591 171.787L146.691 167.287L146.71 167.247L146.729 167.207L148.869 162.723L153.312 153.839L153.332 153.797L155.554 149.454L155.619 149.327L155.688 149.201L160.288 140.801L160.332 140.72L160.378 140.64L162.778 136.439L162.805 136.394L162.832 136.348L164.067 134.235L160.137 135.307ZM246.042 123.396L246.043 123.397L241.271 123.494L236.546 123.688L231.871 123.979L231.858 123.98L226.959 124.28L226.958 124.279L222.263 124.574L217.647 124.959L213.014 125.441L208.438 125.929L203.926 126.504L194.741 127.873L191.729 128.396L190.096 130.847L185.243 138.61L182.772 142.662L180.438 146.653L178.129 150.692L173.645 158.884L171.558 162.962L167.203 171.67L165.178 175.914L163.13 180.301L161.155 184.743L159.226 189.182L155.513 198.168L151.991 207.364L148.671 216.543L145.555 225.894L144.088 230.687L144.07 230.743L142.601 235.443L139.873 244.991L138.615 249.731L137.453 254.581L137.447 254.604L137.441 254.627L136.252 259.479L136.253 259.48L135.101 264.28L134.137 269.101L134.117 269.196L134.096 269.292L133.018 274.192L132.059 278.985L131.194 283.787L130.406 288.712L129.611 293.781L129.608 293.797L129.606 293.812L129.288 295.8H487.573L487.785 293.686L488.275 288.681L488.657 283.907L489.246 274.101L489.639 264.281L489.834 254.542V249.758L489.639 240.136L489.448 235.455L489.154 230.736L489.153 230.724L488.854 225.823L488.562 221.173L488.179 216.559L487.691 211.88L487.2 207.264L486.629 202.792L485.267 193.645L484.735 190.592L482.273 188.951L474.525 184.108L470.495 181.651L466.502 179.314L462.442 176.994L454.243 172.505L450.131 170.401L441.456 166.063L437.222 164.043L432.818 161.987L428.444 160.043L423.953 158.09L414.954 154.373L405.77 150.856L396.592 147.536L387.241 144.42L382.449 142.953L382.393 142.936L377.692 141.466L368.144 138.738L363.403 137.48L358.555 136.318L358.532 136.312L358.509 136.307L353.654 135.117L348.849 133.964L344.035 133.002L343.939 132.982L343.844 132.961L338.932 131.88L334.149 130.924L329.325 130.055L324.454 129.276L319.354 128.477L319.339 128.474L319.323 128.472L314.406 127.685L309.615 127.014L304.644 126.43L304.632 126.429L304.62 126.427L299.693 125.836L294.84 125.351L289.854 124.861L285.047 124.477L275.253 123.888L265.464 123.496L255.629 123.3H250.941L246.042 123.396ZM507.978 209.722L507.979 209.743L508.479 214.544L508.49 214.648L508.908 219.658L508.914 219.764L509.215 224.564L509.216 224.577L509.515 229.464L509.821 234.374L509.826 234.484L510.026 239.385L510.03 239.488L510.032 239.593L510.132 244.492L510.133 244.496L510.234 249.599V254.702L510.03 264.906L510.026 265.008L509.626 275.008L509.622 275.109L509.616 275.211L509.016 285.211L509.01 285.312L509.002 285.414L508.602 290.414L508.595 290.505L508.586 290.596L508.086 295.695L508.085 295.705L508.084 295.716L508.075 295.8H576.779L576.17 294.206L574.846 291.083L574.824 291.033L573.52 287.867L570.488 281.614L568.887 278.412L567.231 275.378L563.588 269.05L561.729 266.076L559.69 262.871L557.646 259.804L553.263 253.707L548.446 247.542L546.059 244.582L543.499 241.549L540.905 238.569L538.229 235.607L535.44 232.625L532.687 229.776L529.78 226.87L526.79 223.976L520.578 218.152L517.525 215.47L514.251 212.773L514.183 212.717L510.855 209.879L507.728 207.376L507.978 209.722ZM1021.99 196.384C990.569 196.384 971.781 209.321 971.781 230.265C971.782 251.516 990.57 263.836 1021.99 263.836C1053.71 263.836 1072.19 251.208 1072.19 230.265C1072.19 209.321 1053.4 196.384 1021.99 196.384ZM461.853 74.9971L461.896 75.0596L464.14 78.3223L464.202 78.4121L464.262 78.5039L466.401 81.7637L466.439 81.8242L468.54 85.124L468.636 85.2754L468.727 85.4287L470.759 88.8838L470.79 88.9395L472.79 92.4395L472.846 92.5361L472.898 92.6338L474.799 96.1338L474.855 96.2393L476.755 99.8398L476.808 99.9385L476.857 100.039L478.657 103.639L478.683 103.688L478.707 103.738L480.507 107.438L480.53 107.486L480.553 107.534L482.353 111.334L482.4 111.434L482.445 111.535L484.146 115.335L484.21 115.481L484.271 115.629L487.471 123.429L487.53 123.573L490.585 131.719L490.639 131.861L490.688 132.005L493.535 140.344L493.578 140.484L494.878 144.685L494.889 144.717L496.221 149.123L497.442 153.398L497.459 153.457L497.475 153.517L498.675 157.917L498.696 157.994L498.716 158.072L499.816 162.372L499.856 162.529L500.881 167.14L501.881 171.54L501.91 171.67L501.937 171.8L502.836 176.3L502.841 176.321L502.845 176.342L503.273 178.534L505.095 179.781L505.223 179.869L505.348 179.96L512.874 185.452L516.598 188.349L516.652 188.391L516.707 188.435L523.707 194.035L523.832 194.135L523.954 194.239L527.309 197.1L530.619 199.826L530.745 199.93L530.868 200.038L534.168 202.938L534.292 203.046L534.411 203.158L540.812 209.158L540.929 209.27L544.089 212.328L547.209 215.448L547.269 215.511L550.227 218.57L553.184 221.731L553.245 221.797L553.305 221.862L556.104 224.963L556.166 225.031L556.227 225.101L558.979 228.261L559.031 228.322L561.804 231.608L561.875 231.696L564.375 234.797L564.425 234.858L564.473 234.92L569.473 241.32L569.599 241.48L574.317 248.047L574.423 248.192L576.782 251.732L576.841 251.823L578.94 255.123L578.963 255.158L578.984 255.193L580.984 258.394L581.083 258.55L581.175 258.71L582.196 260.485L581.739 257.57L579.822 247.985L578.78 243.255L577.655 238.658L576.372 233.722L575.149 229.117L572.288 219.771L570.775 215.229L569.147 210.634L567.467 206.153L563.812 197.113L559.799 188.128L557.745 183.835L555.524 179.489L555.497 179.436L555.471 179.382L553.3 175.041L550.985 170.875L548.562 166.61L546.025 162.318L543.579 158.273L540.928 154.107L538.295 150.158L532.712 142.072L529.806 138.229L526.852 134.415L520.688 126.711L517.583 123.137L514.37 119.45L504.314 108.82L493.682 98.7627L490.017 95.5674L486.422 92.4453L478.717 86.2822L474.903 83.3262L471.062 80.4209L462.976 74.8379L460.629 73.2734L461.853 74.9971ZM326.562 28.7139L323.491 29.165L320.258 29.7354L320.259 29.7363L317.219 30.2881L314.254 30.9854L311.118 31.8408L311.081 31.8506L311.045 31.8604L307.764 32.7285L304.702 33.6289L301.678 34.6367L298.432 35.7822L295.363 36.9551L292.218 38.29L292.168 38.3115L289.001 39.6152L282.748 42.6465L279.577 44.2314L276.513 45.9033L270.203 49.5361L267.211 51.4062L264.028 53.4307L260.955 55.4775L254.843 59.8711L248.677 64.6885L245.717 67.0762L242.648 69.665L239.704 72.2295L236.769 74.8799L233.76 77.6943L230.911 80.4482L228.005 83.3545L225.11 86.3447L219.287 92.5566L216.604 95.6094L213.908 98.8848L213.795 99.0195L211.001 102.295L208.511 105.406L210.856 105.157L210.867 105.155L210.878 105.154L215.679 104.654L215.783 104.644L220.793 104.226L220.899 104.22L225.699 103.92L225.712 103.919L230.599 103.62L235.509 103.312L235.619 103.308L240.52 103.108L240.623 103.104L240.727 103.102L245.627 103.002H245.631L250.631 102.901L250.733 102.899H255.837L266.041 103.104L266.143 103.107L276.143 103.508L276.244 103.512L276.346 103.518L286.346 104.118L286.447 104.124L286.549 104.132L291.549 104.532L291.64 104.539L291.73 104.548L296.83 105.048L296.84 105.049L296.851 105.05L301.851 105.55L301.95 105.561L302.051 105.572L307.051 106.172L307.05 106.173L312.127 106.77L312.238 106.782L317.35 107.498L317.448 107.512L317.547 107.527L322.547 108.328L327.616 109.123L327.631 109.125L327.646 109.128L332.744 109.943L337.842 110.861L337.939 110.878L338.035 110.897L343.035 111.897L343.132 111.917L343.227 111.938L348.139 113.02L353.227 114.036L353.416 114.081L358.416 115.281L358.438 115.287L358.462 115.292L363.361 116.492L368.434 117.71L368.551 117.74L373.451 119.041L373.544 119.065L373.638 119.092L383.438 121.892L383.558 121.927L383.678 121.964L388.421 123.446L393.321 124.946L393.441 124.983L393.561 125.023L403.161 128.223L403.283 128.264L403.404 128.308L412.805 131.708L412.895 131.74L412.983 131.774L422.383 135.374L422.507 135.422L422.629 135.472L431.829 139.272L431.916 139.308L432.002 139.346L436.603 141.346L436.64 141.362L436.678 141.379L441.178 143.379L441.264 143.417L441.349 143.456L445.849 145.557L445.889 145.575L445.929 145.595L450.413 147.734L459.297 152.177L459.339 152.197L463.809 154.484L463.935 154.554L472.334 159.153L472.415 159.197L472.496 159.243L476.695 161.644L476.742 161.67L476.788 161.697L478.897 162.932L477.812 158.948L476.647 154.876L475.391 150.717L474.133 146.653L471.436 138.756L468.533 131.015L465.459 123.521L463.857 119.944L462.14 116.317L460.411 112.762L458.658 109.256L456.835 105.803L454.998 102.42L453.113 99.1221L451.225 95.9121L449.282 92.8594L447.279 89.8066L445.184 86.7588L443.082 83.7959L440.884 80.834L438.72 78.0107L436.563 75.292L431.999 69.9658L429.714 67.499L427.432 65.125L424.965 62.7529L424.893 62.6836L422.537 60.3281L420.076 58.1406L417.639 55.9834L415.153 53.959L412.625 51.9932L410.022 50.041L407.394 48.1631L404.866 46.4482L399.475 43.1025L398.522 42.5771L397.888 42.3525L393.398 40.8564L383.993 37.9775L379.347 36.7451L374.477 35.4785L369.833 34.3418L365.149 33.3115L355.542 31.3906L350.727 30.6357L350.706 30.6318L350.686 30.6289L345.953 29.8711L341.146 29.3066L341.114 29.3027L336.229 28.7168L331.448 28.248L330.814 28.1982L326.562 28.7139ZM258.727 31.3906L249.119 33.3115L244.426 34.3438L239.791 35.4785L234.921 36.7441L234.922 36.7451L230.281 37.9756L220.869 40.8564L216.364 42.3574L211.785 43.9795L207.289 45.665L198.27 49.3105L189.233 53.3486L184.97 55.3877L180.624 57.6094L180.517 57.6641L176.185 59.8301L171.939 62.1885L167.745 64.5713L163.453 67.1084L159.408 69.5537L155.242 72.2051L151.267 74.8555L143.206 80.4219L139.404 83.2959L135.521 86.3066L127.846 92.4453L124.252 95.5684L124.251 95.5674L120.572 98.7744L109.954 108.819L99.9092 119.438L96.7021 123.116L93.5801 126.711L87.4414 134.386L84.4307 138.27L81.5566 142.071L75.9902 150.132L74.4082 152.504L76.1318 151.281L76.1943 151.237L79.457 148.994L79.5469 148.933L79.6387 148.872L82.8984 146.732L82.959 146.694L86.2588 144.595L86.4092 144.498L86.5635 144.408L89.9639 142.408L90.0186 142.375L90.0742 142.344L93.5742 140.344L93.6709 140.288L93.7686 140.235L97.2686 138.335L97.3213 138.307L97.374 138.279L100.975 136.379L101.073 136.326L101.174 136.276L104.773 134.477L104.873 134.428L108.573 132.627L108.621 132.604L108.669 132.581L112.469 130.781L112.568 130.734L112.67 130.688L116.616 128.924L124.563 125.663L124.708 125.604L132.854 122.549L132.996 122.496L141.339 119.646L141.479 119.6L141.619 119.556L145.819 118.256L150.184 116.937L150.258 116.913L154.533 115.692L154.592 115.675L154.651 115.659L159.052 114.459L159.129 114.438L159.207 114.418L163.507 113.317L163.664 113.277L168.296 112.248L172.675 111.253L172.805 111.224L172.935 111.197L177.435 110.298L177.456 110.294L177.477 110.289L179.671 109.859L180.916 108.041L181.004 107.913L181.095 107.788L186.587 100.262L189.483 96.5381L189.525 96.4834L189.569 96.4287L195.17 89.4287L195.27 89.3037L195.374 89.1816L198.234 85.8262L200.961 82.5166L201.064 82.3896L201.173 82.2676L204.072 78.9668L204.181 78.8438L204.293 78.7246L210.293 72.3242L210.404 72.207L213.463 69.0469L216.583 65.9268L216.646 65.8662L219.646 62.9668L219.705 62.9082L219.767 62.8516L222.866 59.9512L222.932 59.8906L222.997 59.8311L226.098 57.0312L226.166 56.9697L226.235 56.9092L229.396 54.1562L229.457 54.1045L232.656 51.4043L232.743 51.332L232.831 51.2607L235.932 48.7607L235.993 48.7109L236.055 48.6621L242.615 43.5371L249.327 38.7129L252.776 36.4131L252.866 36.3535L252.958 36.2949L256.258 34.1953L256.328 34.1504L259.685 32.0527L259.845 31.9609L261.624 30.9355L258.727 31.3906Z" fill="currentColor"></path>
</svg>